# xmcd
#
# Track frame offsets:
# 150
# 14243
# 28314
# 43070
# 58662
# 70476
# 86524
# 102269
# 119675
# 130329
# 148468
# 163429
# 178114
# 194801
# 208181
# 220300
# 230195
# 245723
# 259531
# 274360
# 285837
# 300207
#
# Disc length: 4189 seconds
#
#
# Revision: 0
# Processed by: cddbd v1.5.1PL2 Copyright (c) Steve Scherf et al.
# Submitted via: FreeRIP 2.53 
#
DISCID=71105b16
DTITLE=Edição Cafageste
DYEAR=2005
DGENRE=Country
TTITLE0=Gino and Geno - Que bicho que é
TTITLE1=Alan and Aladin - Segura o Pinto
TTITLE2=Jorge Moises - Sem grana nao da
TTITLE3=Geraldo Viola and Dino Guedes - Presa acuada
TTITLE4=Champion - Tira
TTITLE5=Teodoro and Sampaio - Toco de saia
TTITLE6=Gino and Geno - Dando Mole
TTITLE7=Pedro and Thiago - Arrepiado
TTITLE8=Zeze Planeta and Prateado - Chutei o saco
TTITLE9=Jorge Moises - Muie de zona
TTITLE10=Flor da Serra - Deixa o tapete
TTITLE11=Jad and Jeferson - Furar o couro
TTITLE12=Gino and Geno - Eu ja fui de voce
TTITLE13=Adalberto and Adriano - capim mexeu, pau na prea
TTITLE14=Lourenco e Lourival - So file
TTITLE15=Teodoro and Sampaio - Silicone la
TTITLE16=Champion - Pode deixar
TTITLE17=Jad and Jeferson - O file
TTITLE18=Cezar and Paulinho - Se tiver mulher (nois vai)
TTITLE19=Jorge Moises - Gandaia
TTITLE20=Adalberto and Adriano - Ripa na chulipa
TTITLE21=Sergio Reis - Cunhada boa
EXTD=
EXTT0=
EXTT1=
EXTT2=
EXTT3=
EXTT4=
EXTT5=
EXTT6=
EXTT7=
EXTT8=
EXTT9=
EXTT10=
EXTT11=
EXTT12=
EXTT13=
EXTT14=
EXTT15=
EXTT16=
EXTT17=
EXTT18=
EXTT19=
EXTT20=
EXTT21=
PLAYORDER=
